<?xml version="1.0" standalone="no"?><!DOCTYPE svg PUBLIC "-//W3C//DTD SVG 1.1//EN" "http://www.w3.org/Graphics/SVG/1.1/DTD/svg11.dtd"><svg t="1505315076542" class="icon" style="" viewBox="0 0 1024 1024" version="1.1" xmlns="http://www.w3.org/2000/svg" p-id="1002" xmlns:xlink="http://www.w3.org/1999/xlink" width="200" height="200"><defs><style type="text/css"></style></defs><path d="M893.375 228.5h-55.125c1.125-7.875 0-16.875-2.25-24.75l-24.75-78.75c-4.5-14.625-14.625-27-28.125-33.75-7.875-4.5-16.875-6.75-25.875-6.75-5.625 0-11.25 1.125-16.875 2.25h-1.125l-225 104.625-225-104.625-2.25 2.25c-5.625-2.25-11.25-2.25-16.875-2.25-24.75 0-47.25 15.75-55.125 39.375l-24.75 78.75c-2.25 7.875-3.375 16.875-2.25 24.75h-56.25c-37.125 0-67.5 30.375-67.5 67.5v103.5c0 37.125 30.375 67.5 67.5 67.5v399.375c0 37.125 30.375 67.5 67.5 67.5h627.75c37.125 0 67.5-30.375 67.5-67.5v-351c0-12.375-10.125-22.5-22.5-22.5v0c-12.375 0-22.5 10.125-22.5 22.5v352.125c0 12.375-10.125 21.375-21.375 21.375h-628.875c-12.375 0-21.375-10.125-21.375-21.375v-421.875c0-13.5-10.125-23.625-23.625-23.625h-21.375c-12.375 0-21.375-10.125-21.375-21.375v-103.5c0-12.375 10.125-21.375 21.375-21.375h100.125c9 0 16.875-5.625 19.125-13.5l2.25-5.625c3.375-10.125-2.25-21.375-12.375-24.75v0c-3.375-1.125-5.625-3.375-6.75-4.5s-1.125-3.375 0-6.75l24.75-78.75c1.125-4.5 5.625-7.875 11.25-7.875 1.125 0 1.125 0 2.25 0l241.875 112.5 241.875-112.5c2.25 0 5.625 0 7.875 1.125s4.5 3.375 5.625 6.75l24.75 78.75c1.125 3.375 0 5.625 0 6.75-1.125 2.25-3.375 4.5-6.75 4.5v0c-9 3.375-14.625 12.375-12.375 22.5l2.25 9c2.25 7.875 9 13.5 18 13.5h100.125c12.375 0 21.375 10.125 21.375 21.375v103.5c0 12.375-10.125 21.375-21.375 21.375h-654.75c-12.375 0-22.5 10.125-22.5 22.5v0c0 12.375 10.125 22.5 22.5 22.5h652.5c37.125 0 67.5-30.375 67.5-67.5v-103.5c0-39.375-30.375-69.75-68.625-69.75v0z" p-id="1003"></path></svg>