<?xml version="1.0" standalone="no"?><!DOCTYPE svg PUBLIC "-//W3C//DTD SVG 1.1//EN" "http://www.w3.org/Graphics/SVG/1.1/DTD/svg11.dtd"><svg t="1505349960494" class="icon" style="" viewBox="0 0 1024 1024" version="1.1" xmlns="http://www.w3.org/2000/svg" p-id="2927" xmlns:xlink="http://www.w3.org/1999/xlink" width="200" height="200"><defs><style type="text/css"></style></defs><path d="M896.881315 737.913312C852.451893 679.458143 798.70711 641.497972 721.693501 619.954882L649.537854 874.665098C649.537854 898.123664 630.482475 917.332643 607.216661 917.332643 583.950847 917.332643 564.89848 898.123664 564.89848 874.665098L564.89848 671.998024C564.89848 642.561122 541.195961 618.665851 512 618.665851 482.801027 618.665851 459.10152 642.561122 459.10152 671.998024L459.10152 874.665098C459.10152 898.123664 440.058188 917.332643 416.780327 917.332643 393.505478 917.332643 374.462146 898.123664 374.462146 874.665098L302.303487 619.954882C225.29289 641.708795 171.548107 679.458143 127.10965 737.913312 109.54509 760.959268 100.018906 807.246943 99.389449 832.000565 99.59726 838.394522 99.389449 845.875724 99.389449 853.332831L99.389449 895.997365 99.389449 938.667922C99.389449 985.810936 137.26529 1023.996988 184.028823 1023.996988L839.971177 1023.996988C886.73471 1023.996988 924.610551 985.810936 924.610551 938.667922L924.610551 895.997365 924.610551 853.332831C924.610551 845.875724 924.40274 838.394522 924.610551 832.000565 923.969047 807.246943 914.442863 760.959268 896.881315 737.913312ZM289.822771 225.707007C289.822771 350.291299 366.848427 533.333773 512 533.333773 654.618686 533.333773 734.174217 350.291299 734.174217 225.707007 734.174217 101.122714 634.720016 0 512 0 389.279984 0 289.822771 101.122714 289.822771 225.707007Z" p-id="2928"></path></svg>